<svg width="32" height="32" viewBox="0 0 32 32" xmlns="http://www.w3.org/2000/svg">
<path fill-rule="evenodd" clip-rule="evenodd" d="M6.21239 12.8113C5.10806 12.7884 4.20704 11.8583 4.52549 10.8006C4.67539 10.3028 4.87823 9.8154 5.13252 9.34402C5.71519 8.26394 6.5566 7.28903 7.60872 6.47495C8.66083 5.66088 9.90304 5.02357 11.2644 4.59943C12.6258 4.17528 14.0797 3.97261 15.5431 4.00297C17.0065 4.03333 18.4507 4.29614 19.7934 4.77639C21.136 5.25663 22.3507 5.94491 23.3681 6.80193C24.3856 7.65895 25.1858 8.66792 25.7232 9.77123C25.8085 9.94643 25.887 10.1235 25.9584 10.3021C26.5741 11.8403 25.1571 13.2044 23.5006 13.17L6.21239 12.8113ZM5.48303 11.0889C5.61303 10.6572 5.78963 10.2322 6.01262 9.8188C6.52356 8.8717 7.26965 8.0017 8.22067 7.26585C9.17197 6.52978 10.306 5.94543 11.5619 5.55416C12.8176 5.16294 14.1639 4.97457 15.5224 5.00276C16.8809 5.03094 18.2182 5.275 19.4566 5.71797C20.6951 6.16098 21.804 6.79187 22.7239 7.56676C23.6436 8.34143 24.3529 9.24163 24.8242 10.2091C24.899 10.3628 24.9676 10.5177 25.03 10.6736C25.1799 11.048 25.0979 11.3732 24.844 11.6505C24.5664 11.9537 24.0808 12.1818 23.5214 12.1702L6.23314 11.8115C5.94999 11.8057 5.71734 11.6825 5.58611 11.5334C5.46837 11.3996 5.43284 11.2557 5.48303 11.0889Z"/>
<path d="M6 22.7322C4.89543 22.7322 4 23.6277 4 24.7322C4 25.8368 4.89543 26.7322 6 26.7322H20.5C20.7761 26.7322 21 26.5084 21 26.2322C21 25.9561 20.7761 25.7322 20.5 25.7322H6C5.44772 25.7322 5 25.2845 5 24.7322C5 24.18 5.44772 23.7322 6 23.7322H25C25.5523 23.7322 26 24.18 26 24.7322C26 25.2845 25.5523 25.7322 25 25.7322H23C22.7239 25.7322 22.5 25.9561 22.5 26.2322C22.5 26.5084 22.7239 26.7322 23 26.7322H25C26.1046 26.7322 27 25.8368 27 24.7322C27 23.6277 26.1046 22.7322 25 22.7322H6Z"/>
<path d="M4.83634 14.3623C5.14376 14.6417 5.39587 14.7322 5.6 14.7322C5.80413 14.7322 6.05625 14.6417 6.36367 14.3623C6.78958 13.9751 7.2708 13.7322 7.8 13.7322C8.32921 13.7322 8.81042 13.9751 9.23634 14.3623C9.54376 14.6417 9.79587 14.7322 10 14.7322C10.2041 14.7322 10.4562 14.6417 10.7637 14.3623C11.1896 13.9751 11.6708 13.7322 12.2 13.7322C12.7292 13.7322 13.2104 13.9751 13.6363 14.3623C13.9438 14.6417 14.1959 14.7322 14.4 14.7322C14.6041 14.7322 14.8562 14.6417 15.1637 14.3623C15.5896 13.9751 16.0708 13.7322 16.6 13.7322C17.1292 13.7322 17.6104 13.9751 18.0363 14.3623C18.3438 14.6417 18.5959 14.7322 18.8 14.7322C19.0041 14.7322 19.2562 14.6417 19.5637 14.3623C19.9896 13.9751 20.4708 13.7322 21 13.7322C21.5292 13.7322 22.0104 13.9751 22.4363 14.3623C22.7438 14.6417 22.9959 14.7322 23.2 14.7322C23.4041 14.7322 23.6562 14.6417 23.9637 14.3623C24.3896 13.9751 24.8708 13.7322 25.4 13.7322C25.9292 13.7322 26.4104 13.9751 26.8363 14.3623C27.0407 14.548 27.0557 14.8643 26.87 15.0686C26.6842 15.2729 26.368 15.288 26.1637 15.1022C25.8563 14.8227 25.6041 14.7322 25.4 14.7322C25.1959 14.7322 24.9438 14.8227 24.6363 15.1022C24.2104 15.4894 23.7292 15.7322 23.2 15.7322C22.6708 15.7322 22.1896 15.4894 21.7637 15.1022C21.4562 14.8227 21.2041 14.7322 21 14.7322C20.7959 14.7322 20.5438 14.8227 20.2363 15.1022C19.8104 15.4894 19.3292 15.7322 18.8 15.7322C18.2708 15.7322 17.7896 15.4894 17.3637 15.1022C17.0562 14.8227 16.8041 14.7322 16.6 14.7322C16.3959 14.7322 16.1438 14.8227 15.8363 15.1022C15.4104 15.4894 14.9292 15.7322 14.4 15.7322C13.8708 15.7322 13.3896 15.4894 12.9637 15.1022C12.6562 14.8227 12.4041 14.7322 12.2 14.7322C11.9959 14.7322 11.7438 14.8227 11.4363 15.1022C11.0104 15.4894 10.5292 15.7322 10 15.7322C9.4708 15.7322 8.98958 15.4894 8.56367 15.1022C8.25625 14.8227 8.00413 14.7322 7.8 14.7322C7.59587 14.7322 7.34376 14.8227 7.03634 15.1022C6.61043 15.4894 6.12921 15.7322 5.6 15.7322C5.0708 15.7322 4.58958 15.4894 4.16367 15.1022C3.95934 14.9165 3.94428 14.6002 4.13003 14.3959C4.31579 14.1916 4.63201 14.1765 4.83634 14.3623Z"/>
<path d="M6 18.2322C6 17.9561 6.22386 17.7322 6.5 17.7322H25.5C25.7761 17.7322 26 17.5084 26 17.2322C26 16.9561 25.7761 16.7322 25.5 16.7322H6.5C5.67158 16.7322 5 17.4038 5 18.2322C5 19.0607 5.67158 19.7322 6.5 19.7322H24.5C24.7761 19.7322 25 19.9561 25 20.2322C25 20.5084 24.7761 20.7322 24.5 20.7322H5.5C5.22386 20.7322 5 20.9561 5 21.2322C5 21.5084 5.22386 21.7322 5.5 21.7322H24.5C25.3284 21.7322 26 21.0607 26 20.2322C26 19.4038 25.3284 18.7322 24.5 18.7322H6.5C6.22386 18.7322 6 18.5084 6 18.2322Z"/>
<path fill-rule="evenodd" clip-rule="evenodd" d="M6.21239 12.8113C5.10806 12.7884 4.20704 11.8583 4.52549 10.8006C4.67539 10.3028 4.87823 9.8154 5.13252 9.34402C5.71519 8.26394 6.5566 7.28903 7.60872 6.47495C8.66083 5.66088 9.90304 5.02357 11.2644 4.59943C12.6258 4.17528 14.0797 3.97261 15.5431 4.00297C17.0065 4.03333 18.4507 4.29614 19.7934 4.77639C21.136 5.25663 22.3507 5.94491 23.3681 6.80193C24.3856 7.65895 25.1858 8.66792 25.7232 9.77123C25.8085 9.94643 25.887 10.1235 25.9584 10.3021C26.5741 11.8403 25.1571 13.2044 23.5006 13.17L6.21239 12.8113ZM5.48303 11.0889C5.61303 10.6572 5.78963 10.2322 6.01262 9.8188C6.52356 8.8717 7.26965 8.0017 8.22067 7.26585C9.17197 6.52978 10.306 5.94543 11.5619 5.55416C12.8176 5.16294 14.1639 4.97457 15.5224 5.00276C16.8809 5.03094 18.2182 5.275 19.4566 5.71797C20.6951 6.16098 21.804 6.79187 22.7239 7.56676C23.6436 8.34143 24.3529 9.24163 24.8242 10.2091C24.899 10.3628 24.9676 10.5177 25.03 10.6736C25.1799 11.048 25.0979 11.3732 24.844 11.6505C24.5664 11.9537 24.0808 12.1818 23.5214 12.1702L6.23314 11.8115C5.94999 11.8057 5.71734 11.6825 5.58611 11.5334C5.46837 11.3996 5.43284 11.2557 5.48303 11.0889Z" stroke-width="0.5"/>
<path d="M6 22.7322C4.89543 22.7322 4 23.6277 4 24.7322C4 25.8368 4.89543 26.7322 6 26.7322H20.5C20.7761 26.7322 21 26.5084 21 26.2322C21 25.9561 20.7761 25.7322 20.5 25.7322H6C5.44772 25.7322 5 25.2845 5 24.7322C5 24.18 5.44772 23.7322 6 23.7322H25C25.5523 23.7322 26 24.18 26 24.7322C26 25.2845 25.5523 25.7322 25 25.7322H23C22.7239 25.7322 22.5 25.9561 22.5 26.2322C22.5 26.5084 22.7239 26.7322 23 26.7322H25C26.1046 26.7322 27 25.8368 27 24.7322C27 23.6277 26.1046 22.7322 25 22.7322H6Z" stroke-width="0.5"/>
<path d="M4.83634 14.3623C5.14376 14.6417 5.39587 14.7322 5.6 14.7322C5.80413 14.7322 6.05625 14.6417 6.36367 14.3623C6.78958 13.9751 7.2708 13.7322 7.8 13.7322C8.32921 13.7322 8.81042 13.9751 9.23634 14.3623C9.54376 14.6417 9.79587 14.7322 10 14.7322C10.2041 14.7322 10.4562 14.6417 10.7637 14.3623C11.1896 13.9751 11.6708 13.7322 12.2 13.7322C12.7292 13.7322 13.2104 13.9751 13.6363 14.3623C13.9438 14.6417 14.1959 14.7322 14.4 14.7322C14.6041 14.7322 14.8562 14.6417 15.1637 14.3623C15.5896 13.9751 16.0708 13.7322 16.6 13.7322C17.1292 13.7322 17.6104 13.9751 18.0363 14.3623C18.3438 14.6417 18.5959 14.7322 18.8 14.7322C19.0041 14.7322 19.2562 14.6417 19.5637 14.3623C19.9896 13.9751 20.4708 13.7322 21 13.7322C21.5292 13.7322 22.0104 13.9751 22.4363 14.3623C22.7438 14.6417 22.9959 14.7322 23.2 14.7322C23.4041 14.7322 23.6562 14.6417 23.9637 14.3623C24.3896 13.9751 24.8708 13.7322 25.4 13.7322C25.9292 13.7322 26.4104 13.9751 26.8363 14.3623C27.0407 14.548 27.0557 14.8643 26.87 15.0686C26.6842 15.2729 26.368 15.288 26.1637 15.1022C25.8563 14.8227 25.6041 14.7322 25.4 14.7322C25.1959 14.7322 24.9438 14.8227 24.6363 15.1022C24.2104 15.4894 23.7292 15.7322 23.2 15.7322C22.6708 15.7322 22.1896 15.4894 21.7637 15.1022C21.4562 14.8227 21.2041 14.7322 21 14.7322C20.7959 14.7322 20.5438 14.8227 20.2363 15.1022C19.8104 15.4894 19.3292 15.7322 18.8 15.7322C18.2708 15.7322 17.7896 15.4894 17.3637 15.1022C17.0562 14.8227 16.8041 14.7322 16.6 14.7322C16.3959 14.7322 16.1438 14.8227 15.8363 15.1022C15.4104 15.4894 14.9292 15.7322 14.4 15.7322C13.8708 15.7322 13.3896 15.4894 12.9637 15.1022C12.6562 14.8227 12.4041 14.7322 12.2 14.7322C11.9959 14.7322 11.7438 14.8227 11.4363 15.1022C11.0104 15.4894 10.5292 15.7322 10 15.7322C9.4708 15.7322 8.98958 15.4894 8.56367 15.1022C8.25625 14.8227 8.00413 14.7322 7.8 14.7322C7.59587 14.7322 7.34376 14.8227 7.03634 15.1022C6.61043 15.4894 6.12921 15.7322 5.6 15.7322C5.0708 15.7322 4.58958 15.4894 4.16367 15.1022C3.95934 14.9165 3.94428 14.6002 4.13003 14.3959C4.31579 14.1916 4.63201 14.1765 4.83634 14.3623Z" stroke-width="0.5"/>
<path d="M6 18.2322C6 17.9561 6.22386 17.7322 6.5 17.7322H25.5C25.7761 17.7322 26 17.5084 26 17.2322C26 16.9561 25.7761 16.7322 25.5 16.7322H6.5C5.67158 16.7322 5 17.4038 5 18.2322C5 19.0607 5.67158 19.7322 6.5 19.7322H24.5C24.7761 19.7322 25 19.9561 25 20.2322C25 20.5084 24.7761 20.7322 24.5 20.7322H5.5C5.22386 20.7322 5 20.9561 5 21.2322C5 21.5084 5.22386 21.7322 5.5 21.7322H24.5C25.3284 21.7322 26 21.0607 26 20.2322C26 19.4038 25.3284 18.7322 24.5 18.7322H6.5C6.22386 18.7322 6 18.5084 6 18.2322Z" stroke-width="0.5"/>
</svg>
