<svg width="32" height="32" viewBox="0 0 32 32" xmlns="http://www.w3.org/2000/svg">
<path d="M26.83 10.1766L27.5415 10.4138L27.5415 10.4138L26.83 10.1766ZM24.6078 16.8433L25.3193 17.0804L25.3193 17.0804L24.6078 16.8433ZM6.38096 6.66667L5.6385 6.77271L5.6385 6.77273L6.38096 6.66667ZM8.09525 18.6667L7.35278 18.7727L7.35279 18.7727L8.09525 18.6667ZM2.66669 3.25C2.25247 3.25 1.91669 3.58579 1.91669 4C1.91669 4.41421 2.25247 4.75 2.66669 4.75V3.25ZM6.3271 6.28954L7.06956 6.1835L7.06956 6.18348L6.3271 6.28954ZM8.33961 20.3771L9.08207 20.2711L9.08207 20.2711L8.33961 20.3771ZM26.1185 9.93944L23.8963 16.6061L25.3193 17.0804L27.5415 10.4138L26.1185 9.93944ZM23.8963 16.6061C23.6354 17.3888 22.903 17.9167 22.078 17.9167V19.4167C23.5486 19.4167 24.8543 18.4756 25.3193 17.0804L23.8963 16.6061ZM24.3002 7.41667C25.6084 7.41667 26.5322 8.69834 26.1185 9.93944L27.5415 10.4138C28.279 8.20138 26.6323 5.91667 24.3002 5.91667V7.41667ZM6.38096 7.41667H24.3002V5.91667H6.38096V7.41667ZM22.078 17.9167H8.09525V19.4167H22.078V17.9167ZM22.6667 21.9167H10.9795V23.4167H22.6667V21.9167ZM3.68723 3.25H2.66669V4.75H3.68723V3.25ZM7.12343 6.56062L7.06956 6.1835L5.58463 6.39559L5.6385 6.77271L7.12343 6.56062ZM8.83771 18.5606L7.12342 6.5606L5.6385 6.77273L7.35278 18.7727L8.83771 18.5606ZM9.08207 20.2711L8.83771 18.5606L7.35279 18.7727L7.59715 20.4832L9.08207 20.2711ZM3.68723 4.75C4.64106 4.75 5.44974 5.45137 5.58464 6.39561L7.06956 6.18348C6.8291 4.50026 5.38754 3.25 3.68723 3.25V4.75ZM10.9795 21.9167C10.0256 21.9167 9.21696 21.2153 9.08207 20.2711L7.59715 20.4832C7.83761 22.1664 9.27917 23.4167 10.9795 23.4167V21.9167ZM13.9167 25.3333C13.9167 26.3919 13.0586 27.25 12 27.25V28.75C13.887 28.75 15.4167 27.2203 15.4167 25.3333H13.9167ZM12 27.25C10.9415 27.25 10.0834 26.3919 10.0834 25.3333H8.58335C8.58335 27.2203 10.113 28.75 12 28.75V27.25ZM10.0834 25.3333C10.0834 24.2748 10.9415 23.4167 12 23.4167V21.9167C10.113 21.9167 8.58335 23.4464 8.58335 25.3333H10.0834ZM12 23.4167C13.0586 23.4167 13.9167 24.2748 13.9167 25.3333H15.4167C15.4167 23.4464 13.887 21.9167 12 21.9167V23.4167ZM24.5834 25.3333C24.5834 26.3919 23.7252 27.25 22.6667 27.25V28.75C24.5537 28.75 26.0834 27.2203 26.0834 25.3333H24.5834ZM22.6667 27.25C21.6081 27.25 20.75 26.3919 20.75 25.3333H19.25C19.25 27.2203 20.7797 28.75 22.6667 28.75V27.25ZM20.75 25.3333C20.75 24.2748 21.6081 23.4167 22.6667 23.4167V21.9167C20.7797 21.9167 19.25 23.4464 19.25 25.3333H20.75ZM22.6667 23.4167C23.7252 23.4167 24.5834 24.2748 24.5834 25.3333H26.0834C26.0834 23.4464 24.5537 21.9167 22.6667 21.9167V23.4167Z"/>
</svg>
