<svg width="32" height="32" viewBox="0 0 32 32" xmlns="http://www.w3.org/2000/svg">
<path d="M25.2593 12.25L25.7896 12.7803L25.7896 12.7803L25.2593 12.25ZM11.9259 20.25L11.3956 20.7803L11.9259 20.25ZM15.4266 20.6973L15.5541 21.4364L15.4266 20.6973ZM18.5947 18.9146L18.0644 18.3843V18.3843L18.5947 18.9146ZM11.4787 16.7494L12.2178 16.8768L11.4787 16.7494ZM13.2613 13.5813L12.731 13.0509L12.731 13.0509L13.2613 13.5813ZM28.0834 16C28.0834 15.5858 27.7476 15.25 27.3334 15.25C26.9191 15.25 26.5834 15.5858 26.5834 16H28.0834ZM16 5.41667C16.4142 5.41667 16.75 5.08089 16.75 4.66667C16.75 4.25246 16.4142 3.91667 16 3.91667V5.41667ZM25.7896 11.7197L20.4563 6.38634L19.3956 7.447L24.729 12.7803L25.7896 11.7197ZM15.2991 19.9582C14.7104 20.0597 14.0858 20.1205 13.543 20.0799C12.9803 20.0378 12.6331 19.8965 12.4563 19.7197L11.3956 20.7803C11.9501 21.3348 12.7354 21.5237 13.4312 21.5757C14.1469 21.6292 14.907 21.548 15.5541 21.4364L15.2991 19.9582ZM12.4563 19.7197C12.2794 19.5428 12.1381 19.1957 12.0961 18.6329C12.0555 18.0901 12.1162 17.4656 12.2178 16.8768L10.7396 16.6219C10.628 17.2689 10.5467 18.029 10.6002 18.7448C10.6522 19.4406 10.8411 20.2258 11.3956 20.7803L12.4563 19.7197ZM13.7917 14.1116L20.4563 7.447L19.3956 6.38634L12.731 13.0509L13.7917 14.1116ZM24.729 11.7197L18.0644 18.3843L19.125 19.4449L25.7896 12.7803L24.729 11.7197ZM19.926 6.91667C20.4563 7.447 20.4561 7.44716 20.456 7.4473C20.456 7.44733 20.4558 7.44746 20.4558 7.44751C20.4557 7.44762 20.4556 7.44767 20.4556 7.44766C20.4556 7.44765 20.4559 7.44739 20.4564 7.44691C20.4574 7.44594 20.4593 7.44405 20.4621 7.44128C20.4678 7.43573 20.4771 7.42666 20.49 7.41438C20.5156 7.38982 20.5553 7.35249 20.6076 7.30496C20.7123 7.20976 20.8669 7.07439 21.0612 6.91899C21.4526 6.60579 21.9907 6.22283 22.5947 5.92083C23.8356 5.30035 25.0812 5.13261 26.0623 6.11367L27.1229 5.05301C25.4373 3.3674 23.3496 3.86633 21.9239 4.57919C21.1946 4.94385 20.5659 5.39422 20.1241 5.74769C19.9017 5.92562 19.723 6.08192 19.5985 6.19505C19.5362 6.25169 19.4873 6.2977 19.4531 6.33042C19.436 6.34679 19.4226 6.35985 19.4129 6.36928C19.4081 6.37399 19.4042 6.3778 19.4014 6.38066C19.3999 6.38208 19.3987 6.38328 19.3978 6.38423C19.3973 6.3847 19.3969 6.38511 19.3965 6.38547C19.3963 6.38564 19.3961 6.38586 19.396 6.38595C19.3958 6.38615 19.3956 6.38634 19.926 6.91667ZM26.0623 6.11367C27.0433 7.09473 26.8756 8.34031 26.2551 9.58126C25.9531 10.1853 25.5702 10.7233 25.257 11.1148C25.1016 11.3091 24.9662 11.4637 24.871 11.5684C24.8235 11.6207 24.7862 11.6603 24.7616 11.686C24.7493 11.6989 24.7402 11.7082 24.7347 11.7139C24.7319 11.7167 24.73 11.7186 24.7291 11.7196C24.7286 11.7201 24.7283 11.7203 24.7283 11.7203C24.7283 11.7203 24.7283 11.7203 24.7285 11.7202C24.7285 11.7201 24.7286 11.72 24.7287 11.72C24.7288 11.7198 24.729 11.7197 25.2593 12.25C25.7896 12.7803 25.7898 12.7801 25.79 12.7799C25.7901 12.7799 25.7903 12.7796 25.7905 12.7795C25.7909 12.7791 25.7913 12.7787 25.7917 12.7782C25.7927 12.7773 25.7939 12.7761 25.7953 12.7746C25.7982 12.7717 25.802 12.7679 25.8067 12.763C25.8161 12.7534 25.8292 12.74 25.8456 12.7228C25.8783 12.6886 25.9243 12.6397 25.9809 12.5774C26.0941 12.453 26.2504 12.2743 26.4283 12.0519C26.7817 11.61 27.2321 10.9814 27.5968 10.2521C28.3096 8.82636 28.8086 6.73862 27.1229 5.05301L26.0623 6.11367ZM15.5541 21.4364C16.9791 21.1906 18.1782 20.3917 19.125 19.4449L18.0644 18.3843C17.2548 19.1939 16.3219 19.7818 15.2991 19.9582L15.5541 21.4364ZM12.2178 16.8768C12.3942 15.8541 12.9821 14.9212 13.7917 14.1116L12.731 13.0509C11.7842 13.9977 10.9854 15.1969 10.7396 16.6219L12.2178 16.8768ZM26.5834 16C26.5834 20.3054 25.909 22.8637 24.3864 24.3863C22.8638 25.9089 20.3054 26.5833 16 26.5833V28.0833C20.3613 28.0833 23.4696 27.4244 25.447 25.447C27.4244 23.4696 28.0834 20.3613 28.0834 16H26.5834ZM5.41669 16C5.41669 11.6946 6.09108 9.13627 7.61368 7.61367C9.13629 6.09107 11.6946 5.41667 16 5.41667V3.91667C11.6388 3.91667 8.53042 4.57561 6.55302 6.55301C4.57563 8.5304 3.91669 11.6387 3.91669 16H5.41669ZM16 26.5833C11.6946 26.5833 9.13629 25.9089 7.61368 24.3863C6.09108 22.8637 5.41669 20.3054 5.41669 16H3.91669C3.91669 20.3613 4.57563 23.4696 6.55302 25.447C8.53042 27.4244 11.6388 28.0833 16 28.0833V26.5833Z"/>
</svg>
