<svg width="32" height="32" viewBox="0 0 32 32" xmlns="http://www.w3.org/2000/svg">
<path d="M17.5267 15.599C20.4408 15.2287 23.3186 16.8902 24.4549 19.599M18.3309 7.99804L21.3578 10.4196C21.9986 10.9323 22.3876 11.6431 22.5072 12.3944C21.1491 11.8794 19.6388 11.7292 18.1238 12.0288L16.9315 12.2646C16.422 12.3653 15.9369 12.5644 15.5035 12.8505C14.1998 13.7113 13.5641 15.2042 13.735 16.6581C11.3675 16.6857 8.99872 16.4664 6.66666 16C4.95094 15.6569 3.83825 13.9878 4.1814 12.2721C4.32758 11.5412 4.72681 10.8852 5.30888 10.4196L8.33576 7.99804C11.2575 5.66065 15.4091 5.66065 18.3309 7.99804ZM9.99973 16.4239C11.2406 16.571 12.4875 16.6494 13.7349 16.6591C13.8054 17.2592 14.0145 17.8551 14.372 18.3965L14.7733 18.3C15.6354 18.1161 16.5215 18.0763 17.3956 18.1817L17.4597 18.3813L15.3481 22.0392C15.049 22.5571 14.9435 23.1337 15.009 23.6851C14.487 23.8894 13.9199 24 13.3333 24C11.4924 24 9.99999 22.5076 9.99999 20.6667L9.99973 16.4239ZM27.2483 17.2968L27.6403 18.4473C28.3527 20.5384 27.2351 22.8111 25.144 23.5236C24.7507 23.6576 24.3395 23.7293 23.9253 23.7366L23.6096 23.7298C23.3307 22.6889 22.8445 21.7169 22.182 20.8712L19.9669 24.7059C19.2305 25.9813 17.5996 26.4183 16.3241 25.6819C15.0487 24.9456 14.6117 23.3147 15.3481 22.0392L17.5626 18.2037C16.6346 18.0719 15.6904 18.1044 14.7733 18.3L14.372 18.3965C13.1522 16.549 13.6599 14.0677 15.5035 12.8505C15.9369 12.5644 16.422 12.3653 16.9315 12.2646L18.1238 12.0288C22.0555 11.2513 25.9558 13.5031 27.2483 17.2968Z" stroke="black" stroke-width="1.5" stroke-linecap="round"/>
</svg>
